<svg width="24" height="24" viewBox="0 0 24 24" fill="none" xmlns="http://www.w3.org/2000/svg">
<path d="M13.3982 16.0147C13.1791 15.1089 12.7168 14.3133 12.011 13.6646C11.2931 12.9914 10.4414 12.5875 9.46794 12.4406C9.38276 12.4284 9.04206 12.3794 8.32416 12.4039C8.10514 12.4161 7.78877 12.4651 7.64276 12.5018C6.32863 12.8078 5.3917 13.5544 4.69813 14.705C4.07757 15.7209 3.87072 16.8347 4.07757 18.022C4.29659 19.2827 4.92932 20.2986 5.93925 21.0453C6.80317 21.6817 7.7401 22 8.71353 22C9.23675 22 9.77213 21.9143 10.3075 21.7307C11.4756 21.339 12.3761 20.5802 12.9723 19.4663C13.5442 18.377 13.6902 17.2264 13.3982 16.0147ZM12.7776 17.1775C12.7776 18.2546 12.3517 19.2705 11.5973 20.0294C10.8429 20.7882 9.83297 21.2166 8.7622 21.2166C6.55982 21.2166 4.75897 19.4051 4.75897 17.1775C4.75897 16.1003 5.17268 15.0967 5.92709 14.3256C6.68149 13.5667 7.7036 13.1383 8.77437 13.1383H8.78654C10.9768 13.1505 12.7776 14.962 12.7776 17.1775Z" fill="#9087DB"/>
<path d="M11.1714 19.0623L10.928 18.8175C10.3318 18.2177 9.74775 17.6302 9.13936 17.0182C9.13936 16.6143 9.13936 16.2104 9.13936 15.8065V15.525V15.4638C9.13936 15.4026 9.13936 15.3291 9.13936 15.2679C9.12719 15.0598 8.96901 14.9007 8.76215 14.9007C8.70131 14.9007 8.65264 14.913 8.5918 14.9374C8.50663 14.9742 8.39712 15.0721 8.39712 15.3169C8.39712 15.3169 8.38495 16.8958 8.38495 17.1039C8.38495 17.263 8.43362 17.4099 8.5553 17.5201C9.05418 18.0219 9.55306 18.5237 10.0641 19.0378L10.636 19.6131C10.6603 19.6376 10.6847 19.662 10.7212 19.6865C10.7942 19.7355 10.8672 19.76 10.9402 19.76C11.0375 19.76 11.1349 19.7232 11.2079 19.6498C11.3417 19.5152 11.3539 19.3071 11.2444 19.148C11.2322 19.1235 11.1957 19.0868 11.1714 19.0623Z" fill="#9087DB"/>
<path d="M12.1084 17.569C12.2787 17.569 12.3761 17.5078 12.4369 17.4466C12.5099 17.3732 12.5342 17.2753 12.5342 17.1651C12.5221 16.957 12.3639 16.8102 12.157 16.7979C11.8893 16.7857 11.719 16.9081 11.6825 17.1284C11.6703 17.2386 11.6947 17.3487 11.7677 17.4344C11.8163 17.4956 11.9258 17.569 12.1084 17.569Z" fill="#9087DB"/>
<path d="M5.41599 16.8101H5.40382C5.26997 16.8101 5.16046 16.8468 5.08746 16.9325C5.01445 17.0059 4.99011 17.0916 4.99011 17.2018C5.00228 17.4221 5.17263 17.5445 5.41599 17.5445C5.67151 17.5445 5.84186 17.4099 5.85403 17.1895C5.85403 17.0794 5.8297 16.9937 5.75669 16.9325C5.69585 16.8713 5.59851 16.8101 5.41599 16.8101Z" fill="#9087DB"/>
<path d="M6.43814 19.1357C6.30429 19.1357 6.15828 19.2337 6.06094 19.3805C5.96359 19.5274 5.97576 19.7233 6.10961 19.8579C6.18261 19.9313 6.27996 19.9681 6.3773 19.9681C6.45031 19.9681 6.52331 19.9436 6.59632 19.8946C6.64499 19.8579 6.70583 19.7967 6.7545 19.7355C6.85185 19.6253 6.86401 19.4662 6.79101 19.3316C6.70583 19.2092 6.58415 19.1357 6.43814 19.1357Z" fill="#9087DB"/>
<path d="M8.83516 20.115C8.81082 20.115 8.78649 20.1027 8.76215 20.1027C8.57963 20.1027 8.38495 20.2374 8.38495 20.5311C8.38495 20.6658 8.42145 20.7759 8.50663 20.8494C8.57963 20.9228 8.66481 20.9595 8.77432 20.9595H8.78649C8.98117 20.9473 9.13936 20.8004 9.15152 20.5923C9.16369 20.2863 9.00551 20.1517 8.83516 20.115Z" fill="#9087DB"/>
<path d="M6.21914 15.1579C6.27998 15.2068 6.35299 15.2313 6.43816 15.2313C6.499 15.2313 6.55984 15.2191 6.62068 15.1824C6.75453 15.1089 6.82753 14.9865 6.82753 14.8519C6.82753 14.7172 6.74236 14.5704 6.59634 14.4725C6.45033 14.3623 6.24348 14.3868 6.10963 14.5214C5.97578 14.656 5.96362 14.8641 6.07313 15.011C6.10963 15.06 6.1583 15.1089 6.21914 15.1579Z" fill="#9087DB"/>
<path d="M8.38495 13.8115C8.38495 14.142 8.5918 14.2154 8.68915 14.2399C8.71348 14.2399 8.74999 14.2521 8.77432 14.2521C8.90817 14.2521 9.01768 14.1909 9.07852 14.0808C9.16369 13.9339 9.17586 13.7503 9.09069 13.5912C9.01768 13.4565 8.87166 13.3831 8.70131 13.4076C8.5553 13.4198 8.38495 13.5422 8.38495 13.8115Z" fill="#9087DB"/>
<path d="M11.0984 15.219C11.0984 15.219 11.1106 15.219 11.0984 15.219C11.1106 15.219 11.1106 15.219 11.0984 15.219C11.2931 15.219 11.4026 15.0721 11.4634 14.9987C11.5729 14.8395 11.5608 14.6437 11.4269 14.5091C11.2931 14.3744 11.0862 14.3622 10.9402 14.4723C10.8915 14.5091 10.8429 14.558 10.7942 14.6315C10.709 14.7416 10.6969 14.8885 10.7699 15.0231C10.8064 15.1088 10.9037 15.219 11.0984 15.219Z" fill="#9087DB"/>
<path d="M20.5651 2.67319C20.2487 2.23256 19.8107 2 19.2753 2C16.8904 2 14.5055 2 12.1206 2C11.4757 2 10.8186 2.02448 10.1737 2.02448C9.833 2.02448 9.50447 2.1224 9.23678 2.31824C8.79873 2.63647 8.57971 3.08935 8.57971 3.64015C8.57971 6.13709 8.57971 8.64626 8.57971 11.1432C8.57971 11.3146 8.71356 11.437 8.88391 11.437C9.41929 11.437 9.93035 11.5104 10.4171 11.6573C10.5266 11.694 10.6239 11.6083 10.6239 11.4982C10.6239 11.437 10.6239 11.3758 10.6239 11.3146C10.6239 11.0208 10.8673 10.7882 11.1471 10.7882C11.4757 10.7882 11.8042 10.7882 12.1327 10.7882C12.4369 10.7882 12.6559 11.0086 12.6559 11.3268C12.6559 11.4859 12.6559 11.645 12.6559 11.8042C12.6559 12.1224 12.4369 12.3305 12.1206 12.3427C12.0354 12.3427 11.9502 12.3427 11.865 12.3427C12.6194 12.8323 13.24 13.5055 13.678 14.3011C13.678 14.1787 13.678 14.0441 13.678 13.9217C13.678 13.5912 13.8971 13.3709 14.2378 13.3709C14.5541 13.3831 14.8583 13.3709 15.1747 13.3709C15.5032 13.3709 15.7223 13.5789 15.7223 13.9094C15.7223 14.0685 15.7223 14.2154 15.7223 14.3745C15.7223 14.6928 15.5032 14.9131 15.1869 14.9131C15.0287 14.9131 14.8583 14.9131 14.7002 14.9131C14.542 14.9131 14.3838 14.9131 14.2256 14.9131C14.1039 14.9131 14.0188 15.0233 14.0674 15.1334C14.2378 15.623 14.3473 16.1493 14.3716 16.6879C14.3838 16.847 14.5055 16.9694 14.6636 16.9694C15.0409 16.9694 15.4181 16.9694 15.7953 16.9694C16.9512 16.9694 18.1193 16.9694 19.2753 16.9694C19.5673 16.9694 19.8593 16.896 20.1149 16.7368C20.6016 16.4308 20.8449 15.978 20.8449 15.3904C20.8449 13.4321 20.8449 11.4737 20.8449 9.5153C20.8449 7.55691 20.8449 5.58629 20.8449 3.62791C20.8571 3.28519 20.7719 2.95471 20.5651 2.67319ZM12.6681 9.23378C12.6681 9.55202 12.4491 9.7601 12.1327 9.77234C11.9745 9.77234 11.8042 9.77234 11.646 9.77234C11.4878 9.77234 11.3297 9.77234 11.1715 9.77234C10.8429 9.77234 10.6361 9.55202 10.6239 9.23378C10.6239 9.07466 10.6239 8.92778 10.6239 8.76866C10.6239 8.45043 10.8429 8.24235 11.1471 8.23011C11.4757 8.23011 11.8042 8.23011 12.1327 8.23011C12.4369 8.23011 12.6559 8.45043 12.6559 8.76866C12.6681 8.91554 12.6681 9.07466 12.6681 9.23378ZM13.6902 9.22154C13.6902 9.07466 13.6902 8.92778 13.6902 8.76866C13.6902 8.45043 13.9092 8.23011 14.2256 8.23011C14.5541 8.23011 14.8705 8.23011 15.199 8.23011C15.5154 8.23011 15.7344 8.45043 15.7344 8.76866C15.7344 8.92778 15.7344 9.0869 15.7344 9.24602C15.7344 9.56426 15.5154 9.77234 15.199 9.78458C15.0409 9.78458 14.8705 9.78458 14.7123 9.78458C14.5541 9.78458 14.396 9.78458 14.2378 9.78458C13.9092 9.77234 13.6902 9.55202 13.6902 9.22154ZM15.199 12.3427C15.0409 12.3427 14.8705 12.3427 14.7123 12.3427C14.5541 12.3427 14.3838 12.3427 14.2256 12.3427C13.9092 12.3427 13.6902 12.1224 13.6902 11.8042C13.6902 11.645 13.6902 11.4859 13.6902 11.3268C13.6902 11.0086 13.9092 10.7882 14.2256 10.7882C14.5541 10.7882 14.8705 10.7882 15.199 10.7882C15.5154 10.7882 15.7344 11.0086 15.7344 11.3268C15.7344 11.4859 15.7344 11.645 15.7344 11.8042C15.7344 12.1224 15.5154 12.3427 15.199 12.3427ZM18.8007 14.3868C18.8007 14.6928 18.5817 14.9131 18.2653 14.9131C18.095 14.9131 17.9368 14.9131 17.7665 14.9131C17.6083 14.9131 17.4501 14.9131 17.2919 14.9131C16.9755 14.9131 16.7565 14.6928 16.7565 14.3745C16.7565 14.2154 16.7565 14.0685 16.7565 13.9094C16.7565 13.5912 16.9755 13.3709 17.2919 13.3709C17.6204 13.3709 17.949 13.3709 18.2775 13.3709C18.5939 13.3709 18.8007 13.5912 18.8129 13.8972C18.8007 14.0685 18.8007 14.2277 18.8007 14.3868ZM18.8007 11.8042C18.8007 12.1224 18.5817 12.3305 18.2653 12.3427C18.1072 12.3427 17.9368 12.3427 17.7786 12.3427C17.6204 12.3427 17.4623 12.3427 17.3041 12.3427C16.9755 12.3427 16.7687 12.1224 16.7565 11.8042C16.7565 11.645 16.7565 11.4982 16.7565 11.339C16.7565 11.0208 16.9755 10.8127 17.2797 10.8005C17.6083 10.8005 17.9368 10.8005 18.2653 10.8005C18.5695 10.8005 18.7886 11.0208 18.7886 11.339C18.8007 11.4859 18.8007 11.645 18.8007 11.8042ZM16.7565 9.23378C16.7565 9.07466 16.7565 8.91554 16.7565 8.75642C16.7565 8.45043 16.9755 8.23011 17.2919 8.21787C17.6204 8.21787 17.949 8.21787 18.2775 8.21787C18.5817 8.21787 18.8007 8.43819 18.8007 8.74418C18.8007 8.9033 18.8007 9.07466 18.8007 9.23378C18.8007 9.53978 18.5817 9.74786 18.2775 9.7601C18.1072 9.7601 17.9368 9.7601 17.7786 9.7601C17.6204 9.7601 17.4501 9.7601 17.2919 9.7601C16.9755 9.7601 16.7565 9.55202 16.7565 9.23378ZM18.2288 7.14076C17.0607 7.14076 15.8804 7.14076 14.7123 7.14076C13.5442 7.14076 12.3639 7.14076 11.1958 7.14076C10.8186 7.14076 10.6239 6.95716 10.6239 6.58996C10.6239 5.94125 10.6239 5.30477 10.6239 4.65606C10.6239 4.28886 10.8308 4.08078 11.1958 4.08078C13.5442 4.08078 15.8926 4.08078 18.241 4.08078C18.606 4.08078 18.8129 4.3011 18.8129 4.6683C18.8129 5.31701 18.8129 5.92901 18.8129 6.57772C18.8007 6.95716 18.606 7.14076 18.2288 7.14076Z" fill="#9087DB"/>
</svg>
