<svg width="36" height="36" viewBox="0 0 36 36" fill="none" xmlns="http://www.w3.org/2000/svg">
<circle cx="18" cy="18" r="18" fill="#6153CC"/>
<path d="M19.3982 22.0147C19.1791 21.1089 18.7168 20.3133 18.011 19.6646C17.2931 18.9914 16.4414 18.5875 15.4679 18.4406C15.3828 18.4284 15.0421 18.3794 14.3242 18.4039C14.1051 18.4161 13.7888 18.4651 13.6428 18.5018C12.3286 18.8078 11.3917 19.5545 10.6981 20.705C10.0776 21.7209 9.87072 22.8347 10.0776 24.022C10.2966 25.2827 10.9293 26.2986 11.9393 27.0453C12.8032 27.6817 13.7401 28 14.7135 28C15.2367 28 15.7721 27.9143 16.3075 27.7307C17.4756 27.339 18.3761 26.5802 18.9723 25.4663C19.5442 24.377 19.6902 23.2264 19.3982 22.0147ZM18.7776 23.1775C18.7776 24.2546 18.3517 25.2705 17.5973 26.0294C16.8429 26.7882 15.833 27.2166 14.7622 27.2166C12.5598 27.2166 10.759 25.4051 10.759 23.1775C10.759 22.1004 11.1727 21.0967 11.9271 20.3256C12.6815 19.5667 13.7036 19.1383 14.7744 19.1383H14.7865C16.9768 19.1505 18.7776 20.962 18.7776 23.1775Z" fill="white"/>
<path d="M17.1714 25.0623L16.928 24.8175C16.3318 24.2177 15.7477 23.6302 15.1394 23.0182C15.1394 22.6143 15.1394 22.2104 15.1394 21.8065V21.525V21.4638C15.1394 21.4026 15.1394 21.3291 15.1394 21.2679C15.1272 21.0598 14.969 20.9007 14.7622 20.9007C14.7013 20.9007 14.6526 20.913 14.5918 20.9374C14.5066 20.9742 14.3971 21.0721 14.3971 21.3169C14.3971 21.3169 14.3849 22.8958 14.3849 23.1039C14.3849 23.263 14.4336 23.4099 14.5553 23.5201C15.0542 24.0219 15.5531 24.5237 16.0641 25.0378L16.636 25.6131C16.6603 25.6376 16.6847 25.662 16.7212 25.6865C16.7942 25.7355 16.8672 25.76 16.9402 25.76C17.0375 25.76 17.1349 25.7232 17.2079 25.6498C17.3417 25.5152 17.3539 25.3071 17.2444 25.148C17.2322 25.1235 17.1957 25.0868 17.1714 25.0623Z" fill="white"/>
<path d="M18.1084 23.569C18.2787 23.569 18.3761 23.5078 18.4369 23.4466C18.5099 23.3732 18.5342 23.2753 18.5342 23.1651C18.5221 22.957 18.3639 22.8102 18.157 22.7979C17.8893 22.7857 17.719 22.9081 17.6825 23.1284C17.6703 23.2386 17.6947 23.3487 17.7677 23.4344C17.8163 23.4956 17.9258 23.569 18.1084 23.569Z" fill="white"/>
<path d="M11.416 22.8101H11.4038C11.27 22.8101 11.1605 22.8468 11.0875 22.9325C11.0144 23.0059 10.9901 23.0916 10.9901 23.2018C11.0023 23.4221 11.1726 23.5445 11.416 23.5445C11.6715 23.5445 11.8419 23.4099 11.854 23.1895C11.854 23.0794 11.8297 22.9937 11.7567 22.9325C11.6958 22.8713 11.5985 22.8101 11.416 22.8101Z" fill="white"/>
<path d="M12.4381 25.1357C12.3043 25.1357 12.1583 25.2337 12.0609 25.3805C11.9636 25.5274 11.9758 25.7233 12.1096 25.8579C12.1826 25.9313 12.28 25.9681 12.3773 25.9681C12.4503 25.9681 12.5233 25.9436 12.5963 25.8946C12.645 25.8579 12.7058 25.7967 12.7545 25.7355C12.8518 25.6253 12.864 25.4662 12.791 25.3316C12.7058 25.2092 12.5842 25.1357 12.4381 25.1357Z" fill="white"/>
<path d="M14.8352 26.115C14.8108 26.115 14.7865 26.1028 14.7622 26.1028C14.5796 26.1028 14.3849 26.2374 14.3849 26.5311C14.3849 26.6658 14.4215 26.7759 14.5066 26.8494C14.5796 26.9228 14.6648 26.9595 14.7743 26.9595H14.7865C14.9812 26.9473 15.1394 26.8004 15.1515 26.5923C15.1637 26.2864 15.0055 26.1517 14.8352 26.115Z" fill="white"/>
<path d="M12.2191 21.1579C12.28 21.2068 12.353 21.2313 12.4382 21.2313C12.499 21.2313 12.5598 21.2191 12.6207 21.1824C12.7545 21.1089 12.8275 20.9865 12.8275 20.8519C12.8275 20.7172 12.7424 20.5704 12.5963 20.4725C12.4503 20.3623 12.2435 20.3868 12.1096 20.5214C11.9758 20.656 11.9636 20.8641 12.0731 21.011C12.1096 21.06 12.1583 21.1089 12.2191 21.1579Z" fill="white"/>
<path d="M14.3849 19.8115C14.3849 20.142 14.5918 20.2154 14.6891 20.2399C14.7135 20.2399 14.75 20.2521 14.7743 20.2521C14.9082 20.2521 15.0177 20.1909 15.0785 20.0808C15.1637 19.9339 15.1759 19.7503 15.0907 19.5912C15.0177 19.4565 14.8717 19.3831 14.7013 19.4076C14.5553 19.4198 14.3849 19.5422 14.3849 19.8115Z" fill="white"/>
<path d="M17.0984 21.219C17.0984 21.219 17.1106 21.219 17.0984 21.219C17.1106 21.219 17.1106 21.219 17.0984 21.219C17.2931 21.219 17.4026 21.0721 17.4634 20.9987C17.5729 20.8395 17.5608 20.6437 17.4269 20.5091C17.2931 20.3744 17.0862 20.3622 16.9402 20.4724C16.8915 20.5091 16.8429 20.558 16.7942 20.6315C16.709 20.7416 16.6969 20.8885 16.7699 21.0231C16.8064 21.1088 16.9037 21.219 17.0984 21.219Z" fill="white"/>
<path d="M26.5651 8.67319C26.2487 8.23256 25.8107 8 25.2753 8C22.8904 8 20.5055 8 18.1206 8C17.4757 8 16.8186 8.02448 16.1737 8.02448C15.833 8.02448 15.5045 8.1224 15.2368 8.31824C14.7987 8.63647 14.5797 9.08935 14.5797 9.64015C14.5797 12.1371 14.5797 14.6463 14.5797 17.1432C14.5797 17.3146 14.7136 17.437 14.8839 17.437C15.4193 17.437 15.9303 17.5104 16.4171 17.6573C16.5266 17.694 16.6239 17.6083 16.6239 17.4982C16.6239 17.437 16.6239 17.3758 16.6239 17.3146C16.6239 17.0208 16.8673 16.7882 17.1471 16.7882C17.4757 16.7882 17.8042 16.7882 18.1327 16.7882C18.4369 16.7882 18.6559 17.0086 18.6559 17.3268C18.6559 17.4859 18.6559 17.645 18.6559 17.8042C18.6559 18.1224 18.4369 18.3305 18.1206 18.3427C18.0354 18.3427 17.9502 18.3427 17.865 18.3427C18.6194 18.8323 19.24 19.5055 19.678 20.3011C19.678 20.1787 19.678 20.0441 19.678 19.9217C19.678 19.5912 19.8971 19.3709 20.2378 19.3709C20.5541 19.3831 20.8583 19.3709 21.1747 19.3709C21.5032 19.3709 21.7223 19.5789 21.7223 19.9094C21.7223 20.0685 21.7223 20.2154 21.7223 20.3745C21.7223 20.6928 21.5032 20.9131 21.1869 20.9131C21.0287 20.9131 20.8583 20.9131 20.7002 20.9131C20.542 20.9131 20.3838 20.9131 20.2256 20.9131C20.1039 20.9131 20.0188 21.0233 20.0674 21.1334C20.2378 21.623 20.3473 22.1493 20.3716 22.6879C20.3838 22.847 20.5055 22.9694 20.6636 22.9694C21.0409 22.9694 21.4181 22.9694 21.7953 22.9694C22.9512 22.9694 24.1193 22.9694 25.2753 22.9694C25.5673 22.9694 25.8593 22.896 26.1149 22.7368C26.6016 22.4308 26.8449 21.978 26.8449 21.3904C26.8449 19.4321 26.8449 17.4737 26.8449 15.5153C26.8449 13.5569 26.8449 11.5863 26.8449 9.62791C26.8571 9.28519 26.7719 8.95471 26.5651 8.67319ZM18.6681 15.2338C18.6681 15.552 18.4491 15.7601 18.1327 15.7723C17.9745 15.7723 17.8042 15.7723 17.646 15.7723C17.4878 15.7723 17.3297 15.7723 17.1715 15.7723C16.8429 15.7723 16.6361 15.552 16.6239 15.2338C16.6239 15.0747 16.6239 14.9278 16.6239 14.7687C16.6239 14.4504 16.8429 14.2423 17.1471 14.2301C17.4757 14.2301 17.8042 14.2301 18.1327 14.2301C18.4369 14.2301 18.6559 14.4504 18.6559 14.7687C18.6681 14.9155 18.6681 15.0747 18.6681 15.2338ZM19.6902 15.2215C19.6902 15.0747 19.6902 14.9278 19.6902 14.7687C19.6902 14.4504 19.9092 14.2301 20.2256 14.2301C20.5541 14.2301 20.8705 14.2301 21.199 14.2301C21.5154 14.2301 21.7344 14.4504 21.7344 14.7687C21.7344 14.9278 21.7344 15.0869 21.7344 15.246C21.7344 15.5643 21.5154 15.7723 21.199 15.7846C21.0409 15.7846 20.8705 15.7846 20.7123 15.7846C20.5541 15.7846 20.396 15.7846 20.2378 15.7846C19.9092 15.7723 19.6902 15.552 19.6902 15.2215ZM21.199 18.3427C21.0409 18.3427 20.8705 18.3427 20.7123 18.3427C20.5541 18.3427 20.3838 18.3427 20.2256 18.3427C19.9092 18.3427 19.6902 18.1224 19.6902 17.8042C19.6902 17.645 19.6902 17.4859 19.6902 17.3268C19.6902 17.0086 19.9092 16.7882 20.2256 16.7882C20.5541 16.7882 20.8705 16.7882 21.199 16.7882C21.5154 16.7882 21.7344 17.0086 21.7344 17.3268C21.7344 17.4859 21.7344 17.645 21.7344 17.8042C21.7344 18.1224 21.5154 18.3427 21.199 18.3427ZM24.8007 20.3868C24.8007 20.6928 24.5817 20.9131 24.2653 20.9131C24.095 20.9131 23.9368 20.9131 23.7665 20.9131C23.6083 20.9131 23.4501 20.9131 23.2919 20.9131C22.9755 20.9131 22.7565 20.6928 22.7565 20.3745C22.7565 20.2154 22.7565 20.0685 22.7565 19.9094C22.7565 19.5912 22.9755 19.3709 23.2919 19.3709C23.6204 19.3709 23.949 19.3709 24.2775 19.3709C24.5939 19.3709 24.8007 19.5912 24.8129 19.8972C24.8007 20.0685 24.8007 20.2277 24.8007 20.3868ZM24.8007 17.8042C24.8007 18.1224 24.5817 18.3305 24.2653 18.3427C24.1072 18.3427 23.9368 18.3427 23.7786 18.3427C23.6204 18.3427 23.4623 18.3427 23.3041 18.3427C22.9755 18.3427 22.7687 18.1224 22.7565 17.8042C22.7565 17.645 22.7565 17.4982 22.7565 17.339C22.7565 17.0208 22.9755 16.8127 23.2797 16.8005C23.6083 16.8005 23.9368 16.8005 24.2653 16.8005C24.5695 16.8005 24.7886 17.0208 24.7886 17.339C24.8007 17.4859 24.8007 17.645 24.8007 17.8042ZM22.7565 15.2338C22.7565 15.0747 22.7565 14.9155 22.7565 14.7564C22.7565 14.4504 22.9755 14.2301 23.2919 14.2179C23.6204 14.2179 23.949 14.2179 24.2775 14.2179C24.5817 14.2179 24.8007 14.4382 24.8007 14.7442C24.8007 14.9033 24.8007 15.0747 24.8007 15.2338C24.8007 15.5398 24.5817 15.7479 24.2775 15.7601C24.1072 15.7601 23.9368 15.7601 23.7786 15.7601C23.6204 15.7601 23.4501 15.7601 23.2919 15.7601C22.9755 15.7601 22.7565 15.552 22.7565 15.2338ZM24.2288 13.1408C23.0607 13.1408 21.8804 13.1408 20.7123 13.1408C19.5442 13.1408 18.3639 13.1408 17.1958 13.1408C16.8186 13.1408 16.6239 12.9572 16.6239 12.59C16.6239 11.9412 16.6239 11.3048 16.6239 10.6561C16.6239 10.2889 16.8308 10.0808 17.1958 10.0808C19.5442 10.0808 21.8926 10.0808 24.241 10.0808C24.606 10.0808 24.8129 10.3011 24.8129 10.6683C24.8129 11.317 24.8129 11.929 24.8129 12.5777C24.8007 12.9572 24.606 13.1408 24.2288 13.1408Z" fill="white"/>
</svg>
