<svg width="40" height="40" viewBox="0 0 40 40" fill="none" xmlns="http://www.w3.org/2000/svg">
<circle cx="20" cy="20" r="19.5" fill="#6153CC" stroke="#2A2D43"/>
<ellipse cx="20" cy="20" rx="15.5556" ry="15.5556" fill="#796DD4"/>
<path d="M32.1158 26.6526L32.037 26.4153C32.0392 26.4146 32.032 26.4171 32.0108 26.4191C31.9907 26.4209 31.9634 26.4218 31.9283 26.421C31.8576 26.4192 31.7664 26.4109 31.6559 26.3956C31.468 26.3697 31.2375 26.3258 30.9812 26.2698L24.9717 8.51297C25.1756 8.27499 25.3775 8.05507 25.562 7.87987C25.7835 7.6696 25.9492 7.55417 26.0474 7.52235L26.0474 7.52234C26.4517 7.39131 26.758 7.53228 27.0038 7.7856C27.2593 8.049 27.4271 8.41783 27.5034 8.6585L27.5034 8.65854L32.5243 24.4893C32.6308 24.9353 32.669 25.3781 32.5948 25.7304C32.5226 26.0735 32.3512 26.3105 32.0366 26.4154L32.1158 26.6526ZM32.1158 26.6526C32.9552 26.3725 32.9897 25.3542 32.7653 24.4223L30.7895 26.4832C31.417 26.6255 31.9391 26.7113 32.1158 26.6526ZM10.8093 19.5252L10.8093 19.5253L12.8424 25.892C12.8803 26.0111 12.8282 26.1437 12.6674 26.2931C12.5926 26.3626 12.5075 26.4219 12.4327 26.4665C12.3957 26.4885 12.3626 26.5061 12.3364 26.5189C12.3233 26.5252 12.3125 26.5301 12.3043 26.5336C12.3028 26.5343 12.3014 26.5349 12.3001 26.5354C11.5453 26.7016 10.7884 26.7786 10.0702 26.5936C9.35808 26.4102 8.65802 25.9623 8.02958 25.026C7.98695 24.95 7.96378 24.9077 7.93614 24.826C7.23062 22.7008 7.42185 21.5018 7.89885 20.7812C8.38394 20.0484 9.20905 19.7336 9.97047 19.4845L9.97079 19.4844C9.99824 19.4754 10.027 19.4654 10.0567 19.4552C10.1953 19.4074 10.3557 19.352 10.5115 19.3437C10.6007 19.3389 10.6625 19.3522 10.7035 19.3749C10.7376 19.3938 10.7792 19.4307 10.8093 19.5252ZM23.5561 10.3132L23.5565 10.3128C23.584 10.2811 23.6239 10.2306 23.6735 10.1664L29.0298 25.77C28.7953 25.7048 28.5763 25.6429 28.3878 25.5896C28.0863 25.5044 27.8628 25.4412 27.7791 25.422L27.7789 25.422C26.942 25.2314 26.0862 25.1185 25.2323 25.0057C24.8907 24.9606 24.5494 24.9156 24.2097 24.8656L24.1504 24.8569L24.1197 24.8672C24.117 24.8674 24.114 24.8675 24.1106 24.8677C24.0851 24.8692 24.0478 24.8707 23.9992 24.8725C23.9024 24.876 23.7663 24.88 23.6017 24.8846C23.5341 24.8865 23.4618 24.8884 23.3856 24.8905C23.0914 24.8986 22.7394 24.9082 22.377 24.9199C21.9209 24.9346 21.4465 24.9525 21.048 24.9747C20.6577 24.9964 20.3184 25.0231 20.147 25.0588L20.147 25.0588L20.1441 25.0595L15.3014 26.1303L14.9371 26.1864C14.9014 26.1774 14.865 26.1689 14.8278 26.1602C14.7202 26.135 14.6059 26.1083 14.4838 26.0636C14.3977 26.0321 14.3285 25.9979 14.2794 25.9618C14.2309 25.9262 14.2153 25.8988 14.2102 25.8829C14.2102 25.8829 14.2102 25.8829 14.2102 25.8828L11.8986 18.6428C11.9069 18.556 11.939 18.3981 11.9966 18.2444C12.0291 18.1577 12.0653 18.0845 12.1013 18.0327C12.1341 17.9857 12.1535 17.9752 12.1533 17.9748L15.1033 17.0108L15.1132 17.0076L15.1228 17.0035C15.8977 16.6766 16.6515 16.2839 17.3827 15.8257C18.0753 15.4506 18.722 14.945 19.348 14.4557L19.3587 14.4473L19.3587 14.4474L19.3648 14.4423C20.222 13.7272 21.1267 12.9231 21.9457 12.0726C22.4942 11.5319 23.0197 10.9288 23.5383 10.3337L23.5561 10.3132ZM23.793 31.6194L23.7926 31.6196C23.7456 31.6353 23.6879 31.6582 23.6205 31.685C23.4438 31.7552 23.2 31.8521 22.9056 31.9166C22.5086 32.0036 22.122 32.0027 21.8418 31.8121L16.4135 27.0061C16.7153 26.9294 17.0255 26.8492 17.341 26.7677C18.3694 26.5017 19.4531 26.2215 20.4793 26.003L25.5689 30.9061L25.5688 30.9062L25.5745 30.9114C25.5754 30.9121 25.5761 30.9129 25.5769 30.9136C25.5571 30.9304 25.5296 30.949 25.4964 30.967C25.4551 30.9894 25.4169 31.0046 25.3979 31.0109L25.3831 31.0159L25.369 31.0226C24.8869 31.2534 23.9279 31.5745 23.793 31.6194ZM25.6015 30.9412C25.6015 30.9413 25.6012 30.9408 25.6008 30.9399L25.6015 30.9412ZM25.602 30.8877C25.6023 30.8871 25.6025 30.8868 25.6025 30.8867L25.602 30.8877ZM27.7417 8.58296C27.576 8.06021 27.0085 6.948 25.9704 7.28452L27.7417 8.58296Z" fill="white" stroke="#2A2D43" stroke-width="0.5"/>
</svg>
