<svg width="24" height="24" viewBox="0 0 24 24" fill="none" xmlns="http://www.w3.org/2000/svg">
<g clip-path="url(#clip0_21_171)">
<path d="M17.6244 10.7431C17.4826 10.7431 17.4786 10.7352 17.4471 10.5894C17.321 10.0575 17.1319 9.54922 16.8719 9.06853C16.667 8.69422 16.4306 8.33961 16.1548 8.01258C16.072 7.91802 16.0287 7.81558 16.005 7.70131C15.8868 7.0709 15.7686 6.44048 15.6544 5.81006C15.481 4.85656 15.3076 3.90305 15.1343 2.94954C15.0555 2.52401 14.8033 2.23244 14.429 2.03544C14.362 2.00786 8.41244 1.98816 8.37698 2.00786C7.9278 2.2088 7.67958 2.55553 7.59289 3.04017C7.39589 4.13158 7.18312 5.21905 6.98218 6.30652C6.91126 6.68477 6.83639 7.06696 6.77729 7.44915C6.74971 7.63433 6.67091 7.78012 6.54877 7.91408C5.77256 8.79272 5.30763 9.81715 5.08698 10.9637C4.83876 12.2561 5.20125 13.58 5.29187 13.8676C5.5598 14.7108 5.98533 15.4633 6.57635 16.1213C6.64727 16.2001 6.66697 16.2947 6.68667 16.3893C6.74577 16.6848 6.79699 16.9803 6.84821 17.2797C6.91914 17.6737 6.994 18.0638 7.06492 18.4578C7.20676 19.238 7.34467 20.0181 7.49045 20.7943C7.52197 20.9677 7.56137 21.141 7.62048 21.3065C7.73474 21.6178 7.95144 21.8345 8.25089 21.9763C8.30605 22.0039 14.2753 22.0118 14.3226 21.9921C14.7639 21.799 15.0003 21.4562 15.087 20.9913C15.2328 20.1718 15.3825 19.3522 15.5322 18.5366C15.6228 18.0402 15.7213 17.5476 15.8159 17.0512C15.8514 16.8581 15.8868 16.6651 15.9183 16.472C15.942 16.3105 16.005 16.1765 16.1114 16.0543C16.7694 15.29 17.2146 14.4153 17.4471 13.4342C17.4826 13.2844 17.4826 13.2766 17.6205 13.2766C19.2596 13.2647 19.2871 10.7431 17.6244 10.7431ZM8.24695 6.41684C8.44002 5.38847 8.62914 4.35616 8.82221 3.32779C8.84585 3.19777 8.85767 3.18595 8.98375 3.18201C9.03103 3.17807 9.07438 3.18201 9.12166 3.18201C10.6228 3.18201 12.128 3.18201 13.6291 3.18201C13.7079 3.18201 13.7867 3.18201 13.8813 3.18201C14.102 4.28524 14.299 5.40029 14.4802 6.51534C13.9719 6.28681 13.4834 6.05829 12.9554 5.92038C12.4274 5.78248 11.8916 5.70368 11.3439 5.70368C10.8041 5.70762 10.2722 5.78248 9.75208 5.92432C9.22804 6.07011 8.73159 6.28287 8.23119 6.56262C8.24301 6.4917 8.24301 6.45624 8.24695 6.41684ZM14.4172 17.4846C14.4053 17.6028 14.4014 17.721 14.3778 17.8353C14.2083 18.7651 14.035 19.6911 13.8616 20.617C13.8498 20.68 13.8301 20.7431 13.8183 20.7982C13.6646 20.8376 9.06256 20.8495 8.79069 20.8101C8.76311 20.6997 8.73159 20.5815 8.70795 20.4633C8.56216 19.6989 8.42032 18.9306 8.28241 18.1623C8.24301 17.9377 8.21937 17.7092 8.18785 17.4846C8.18391 17.4807 8.17997 17.4807 8.17603 17.4767C8.17997 17.4807 8.18391 17.4807 8.18785 17.4846C8.25877 17.5161 8.33364 17.5398 8.40456 17.5792C8.97193 17.8786 9.56689 18.0953 10.1973 18.2135C10.6819 18.3041 11.1745 18.3396 11.667 18.3081C12.5299 18.249 13.3455 18.0205 14.1138 17.6225C14.2123 17.5673 14.3147 17.5279 14.4172 17.4846C14.4172 17.4807 14.4211 17.4767 14.425 17.4728C14.4211 17.4728 14.4211 17.4767 14.4172 17.4846ZM11.3675 17.9101C8.10905 17.9101 5.45735 15.2584 5.45735 12C5.45735 8.7415 8.10905 6.08981 11.3675 6.08981C14.626 6.08981 17.2777 8.7415 17.2777 12C17.2777 15.2584 14.626 17.9101 11.3675 17.9101Z" fill="#9087DB"/>
<path d="M11.3674 6.40502C8.28225 6.40502 5.7724 8.91487 5.7724 12C5.7724 15.0851 8.28225 17.5949 11.3674 17.5949C14.4525 17.5949 16.9623 15.0851 16.9623 12C16.9623 8.91487 14.4525 6.40502 11.3674 6.40502ZM7.07264 12.0827H6.24521C6.17035 12.0827 6.10731 12.0197 6.10731 11.9448C6.10731 11.8699 6.17035 11.8069 6.24521 11.8069H7.07264C7.1475 11.8069 7.21054 11.8699 7.21054 11.9448C7.21054 12.0197 7.15144 12.0827 7.07264 12.0827ZM11.0915 6.80297C11.0915 6.72811 11.1546 6.66507 11.2295 6.66507C11.3043 6.66507 11.3674 6.72811 11.3674 6.80297V7.59099C11.3674 7.66586 11.3043 7.7289 11.2295 7.7289C11.1546 7.7289 11.0915 7.66586 11.0915 7.59099V6.80297ZM7.62819 8.52086C7.64001 8.5051 7.66759 8.50116 7.68335 8.51298L7.97886 8.74939C7.99462 8.76121 7.99856 8.78879 7.98674 8.80455C7.97886 8.81243 7.96704 8.82031 7.95522 8.82031C7.94734 8.82031 7.93946 8.81637 7.93158 8.81243L7.63607 8.57602C7.61637 8.56026 7.61637 8.53662 7.62819 8.52086ZM8.08524 15.5855L7.84884 15.881C7.84096 15.8889 7.82914 15.8967 7.81732 15.8967C7.80944 15.8967 7.80156 15.8928 7.79368 15.8889C7.77792 15.877 7.77398 15.8495 7.7858 15.8337L8.0222 15.5382C8.03402 15.5224 8.0616 15.5185 8.07736 15.5303C8.09312 15.5421 8.09706 15.5697 8.08524 15.5855ZM11.3674 17.2837C11.3674 17.3585 11.3043 17.4216 11.2295 17.4216C11.1546 17.4216 11.0915 17.3585 11.0915 17.2837V16.4956C11.0915 16.4208 11.1546 16.3577 11.2295 16.3577C11.3043 16.3577 11.3674 16.4208 11.3674 16.4956V17.2837ZM14.748 14.7896C14.7637 15.0772 14.6298 15.2821 14.4012 15.4397C14.1767 15.5933 13.9205 15.684 13.6566 15.747C13.2507 15.8495 12.837 15.9007 12.4233 15.9243C12.0726 15.944 11.7259 15.9558 11.3752 15.9677C10.8197 15.9598 10.2641 15.9361 9.71251 15.8613C9.35396 15.814 9.00329 15.7431 8.66444 15.6091C8.51078 15.5461 8.36499 15.4712 8.23891 15.3609C8.07342 15.2151 7.9828 15.0378 7.98674 14.8132C7.99068 14.7226 7.9828 14.628 7.99068 14.5374C8.01038 14.3365 8.11677 14.1749 8.24679 14.0291C8.45955 13.7927 8.71566 13.6115 8.98753 13.4499C9.36578 13.2214 9.76767 13.0402 10.1853 12.8904C10.4375 12.7959 10.5557 12.5476 10.4848 12.264C10.4651 12.193 10.4375 12.13 10.3863 12.0748C9.94892 11.5902 9.68887 11.0189 9.58643 10.3766C9.52732 9.9984 9.5352 9.62409 9.65341 9.25766C9.86223 8.60754 10.3035 8.20565 10.9773 8.07169C11.4186 7.98107 11.848 8.02835 12.2499 8.23717C12.7228 8.48146 13.0064 8.87941 13.1246 9.39162C13.2586 9.97082 13.1798 10.5303 12.967 11.078C12.8173 11.4602 12.6085 11.8069 12.3248 12.1103C12.3169 12.1182 12.3051 12.1261 12.3012 12.1379C12.2421 12.3112 12.2066 12.4885 12.2696 12.6698C12.309 12.7841 12.3918 12.855 12.506 12.8944C12.9631 13.048 13.4044 13.2372 13.8181 13.4893C14.086 13.6509 14.3382 13.8321 14.5352 14.0764C14.677 14.2537 14.7637 14.4468 14.748 14.6792C14.744 14.7186 14.744 14.7541 14.748 14.7896ZM14.7361 8.72575C14.7283 8.72575 14.7204 8.72181 14.7125 8.71786C14.6967 8.70604 14.6928 8.67846 14.7046 8.6627L14.941 8.3672C14.9529 8.35144 14.9804 8.34749 14.9962 8.35932C15.012 8.37114 15.0159 8.39872 15.0041 8.41448L14.7677 8.70998C14.7598 8.71786 14.748 8.72575 14.7361 8.72575ZM15.1617 15.7273C15.1538 15.7352 15.142 15.7431 15.1302 15.7431C15.1223 15.7431 15.1144 15.7391 15.1065 15.7352L14.811 15.4988C14.7952 15.487 14.7913 15.4594 14.8031 15.4436C14.815 15.4279 14.8425 15.4239 14.8583 15.4357L15.1538 15.6721C15.1696 15.684 15.1735 15.7076 15.1617 15.7273ZM16.3713 12.0827H15.5439C15.469 12.0827 15.406 12.0197 15.406 11.9448C15.406 11.8699 15.469 11.8069 15.5439 11.8069H16.3713C16.4462 11.8069 16.5092 11.8699 16.5092 11.9448C16.5092 12.0197 16.4501 12.0827 16.3713 12.0827Z" fill="#9087DB"/>
</g>
<defs>
<clipPath id="clip0_21_171">
<rect width="13.8613" height="20" fill="white" transform="translate(5 2)"/>
</clipPath>
</defs>
</svg>
