<svg width="89" height="34" viewBox="0 0 89 34" fill="none" xmlns="http://www.w3.org/2000/svg">
<path d="M44.0202 29.9H0.0134277V33.06H44.0202V29.9Z" fill="#EC1C24"/>
<path d="M88.0269 29.9H44.0201V33.06H88.0269V29.9Z" fill="#72BE44"/>
<path d="M2.41342 15.82C3.80502 17.22 5.53947 17.74 7.09241 17.74C9.67392 17.74 12.2554 16.18 12.7596 13.1H4.79325V10.14H12.6991C12.1949 7.1 9.69409 5.56 7.21342 5.56C5.963 5.56 4.02686 5.9 2.39325 7.54V3.52C4.10754 2.64 5.70081 2.44 7.03191 2.44C10.4403 2.44 12.5176 3.68 13.6672 4.76C15.3815 6.4 16.3294 9.02 16.3294 11.66C16.3294 15.42 14.5748 17.56 13.6874 18.4C12.2756 19.8 10.1176 20.86 7.05207 20.86C4.75291 20.86 3.22014 20.22 2.39325 19.84V15.82H2.41342Z" fill="#2A2D43"/>
<path d="M21.9563 2.85999H24.4571L29.1764 14.06L34.0975 2.85999H36.5983L39.5832 20.48H36.0739L34.4806 9.61999L29.721 20.48H28.5512L23.9933 9.61999L22.1781 20.48H18.6689L21.9563 2.85999Z" fill="#2A2D43"/>
<path d="M44.0605 16.7C45.2302 16.7 46.1378 17.6 46.1378 18.76C46.1378 19.92 45.2302 20.82 44.0605 20.82C42.8907 20.82 41.9832 19.92 41.9832 18.76C41.9832 17.6 42.8907 16.7 44.0605 16.7Z" fill="#2A2D43"/>
<path d="M52.9143 2.85999V17.52H58.4V20.48H49.4454V2.85999H52.9143V2.85999Z" fill="#2A2D43"/>
<path d="M61.9495 2.28C63.0184 2.28 63.8857 3.16 63.8857 4.2C63.8857 5.26 62.9983 6.12 61.9495 6.12C60.8806 6.12 60.0134 5.24 60.0134 4.2C59.9932 3.14 60.8806 2.28 61.9495 2.28ZM63.563 9.04V20.48H60.3159V9.04H63.563Z" fill="#2A2D43"/>
<path d="M69.9563 11.78V20.48H66.7092V11.78H65.4789V9.04H66.7092V5.89999C66.7092 4.83999 66.7899 3.03999 68.2218 1.85999C68.9075 1.27999 69.8756 0.899994 71.0655 0.899994C71.7915 0.899994 72.3764 1.03999 72.921 1.29999V4.24C72.4773 3.9 72.0134 3.75999 71.4487 3.75999C71.0252 3.75999 70.6016 3.86 70.2789 4.34C70.0168 4.76 69.9361 5.36 69.9361 6.32V9.04H72.921V11.78H69.9563Z" fill="#2A2D43"/>
<path d="M85.7681 17.28C85.4252 18.12 84.1143 20.84 80.1008 20.84C78.2454 20.84 76.8336 20.32 75.684 19.22C74.4134 18.04 73.8689 16.56 73.8689 14.76C73.8689 12.48 74.7966 11.08 75.6235 10.26C76.9748 8.93998 78.5882 8.63998 79.9596 8.63998C82.2991 8.63998 83.6706 9.55998 84.4571 10.52C85.6874 11.98 85.8487 13.76 85.8487 15.02V15.28H77.2168C77.2168 15.96 77.3983 16.7 77.7815 17.2C78.1244 17.68 78.8504 18.28 80.1008 18.28C81.3311 18.28 82.2588 17.7 82.7832 16.78L85.7681 17.28ZM82.7832 13.24C82.521 11.68 81.2302 10.94 80.0403 10.94C78.8302 10.94 77.6 11.7 77.3176 13.24H82.7832Z" fill="#2A2D43"/>
</svg>
