<svg width="32" height="32" viewBox="0 0 32 32" fill="none" xmlns="http://www.w3.org/2000/svg">
<path fill-rule="evenodd" clip-rule="evenodd" d="M16.259 16.2594V32H25.1325C28.9553 32 31.9996 28.8519 31.9996 25.0291V16.2594H16.259ZM19.7508 22.93C19.3866 22.93 19.1196 22.7784 19.071 22.3743C19.0225 21.9954 19.2409 21.7176 19.6294 21.6923H27.9809C28.3208 21.7428 28.5393 21.9701 28.515 22.349C28.4907 22.7027 28.2722 22.9047 27.9324 22.93H19.7508ZM19.071 25.5673C19.1196 25.9715 19.3866 26.123 19.7508 26.123H27.9324C28.2722 26.0978 28.4907 25.8957 28.515 25.5421C28.5393 25.1632 28.3208 24.9358 27.9809 24.8853H19.6294C19.2409 24.9106 19.0225 25.1884 19.071 25.5673Z" fill="#6153CC"/>
<path fill-rule="evenodd" clip-rule="evenodd" d="M15.7406 0V15.7406H0V6.86707C0 3.04434 3.14813 0 6.97085 0H15.7406ZM6.39247 12.3046C6.96532 12.3665 7.55863 12.4078 8.15194 12.4078C8.5202 12.3872 8.88847 12.3665 9.27719 12.4078C9.70683 12.3872 10.1569 12.3253 10.5866 12.2221C10.873 12.1601 11.139 12.0569 11.3845 11.8918C11.63 11.7267 11.7732 11.4997 11.7527 11.1901V11.0869C11.7732 10.8392 11.6709 10.6328 11.5277 10.4471C11.3231 10.1788 11.0571 9.97238 10.7707 9.80727C10.3411 9.53895 9.8705 9.33256 9.37948 9.16745C9.25673 9.12617 9.17489 9.04361 9.13397 8.91978C9.0726 8.71338 9.11351 8.52763 9.17489 8.34188L9.19535 8.32124C9.48178 7.99101 9.70683 7.6195 9.8705 7.20671C10.0955 6.60817 10.1774 6.00963 10.0342 5.39045C9.91142 4.83319 9.62499 4.42041 9.11351 4.1521C8.68388 3.92506 8.23378 3.86315 7.76322 3.96634C7.04716 4.11082 6.5766 4.54424 6.35155 5.24598C6.20834 5.63813 6.20834 6.03027 6.26971 6.44306C6.37201 7.12416 6.63797 7.74333 7.10853 8.25932C7.16991 8.32124 7.19037 8.38315 7.21083 8.46571C7.2722 8.7753 7.14945 9.04361 6.88348 9.14681C6.45384 9.31192 6.0242 9.49768 5.61502 9.74535C5.3286 9.91046 5.06263 10.1169 4.83758 10.3645C4.71483 10.509 4.59207 10.6948 4.57161 10.9011V11.1901C4.57161 11.4171 4.65345 11.6029 4.83758 11.768C4.96034 11.8918 5.12401 11.9744 5.28768 12.0363C5.63548 12.1808 6.00375 12.2427 6.39247 12.3046Z" fill="#6153CC"/>
<path fill-rule="evenodd" clip-rule="evenodd" d="M31.9996 15.7406H16.259V0H25.1325C28.9553 0 31.9996 3.04434 31.9996 6.86707V15.7406ZM20.3834 5.49388C20.2912 5.70132 20.2451 5.95486 20.2451 6.25449C20.2451 6.55412 20.2912 6.8307 20.3834 7.06119C20.4756 7.29167 20.5909 7.45301 20.7522 7.59131C20.9135 7.7296 21.0979 7.82179 21.3054 7.89094C21.5359 7.96008 21.7663 7.98313 22.0199 7.98313C22.2734 7.98313 22.5039 7.96008 22.7113 7.89094C22.9188 7.82179 23.1032 7.7296 23.2645 7.59131C23.4258 7.45301 23.5411 7.26863 23.6333 7.06119C23.7255 6.85375 23.7716 6.60022 23.7716 6.27754C23.7716 5.9779 23.7255 5.70132 23.6333 5.49388C23.5411 5.2634 23.4258 5.10206 23.2645 4.96377C23.1032 4.82547 22.9188 4.73328 22.7113 4.66413C22.5039 4.59499 22.2734 4.57194 22.0199 4.57194C21.7663 4.57194 21.5128 4.59499 21.3054 4.66413C21.0979 4.73328 20.9135 4.82547 20.7522 4.96377C20.5909 5.10206 20.4756 5.28645 20.3834 5.49388ZM26.9292 5.56303C27.1136 5.35559 27.0906 5.05596 26.8831 4.87157C26.6757 4.68718 26.353 4.71023 26.1917 4.91767L21.0749 10.772C20.8905 10.9564 20.9135 11.256 21.0979 11.4404L21.121 11.4635C21.3054 11.6709 21.6281 11.6479 21.8124 11.4404L26.9292 5.56303ZM22.0199 7.10729C21.6281 7.10729 21.4206 6.8307 21.4206 6.25449C21.4206 5.93181 21.4667 5.70132 21.5589 5.58608C21.6742 5.47083 21.8124 5.40169 22.0199 5.40169C22.2273 5.40169 22.3656 5.47083 22.4578 5.58608C22.55 5.70132 22.5961 5.93181 22.5961 6.25449C22.5961 6.57717 22.55 6.80765 22.4578 6.9229C22.3656 7.03814 22.2273 7.10729 22.0199 7.10729ZM24.44 9.20471C24.3478 9.41215 24.3017 9.66568 24.3017 9.96531C24.3017 10.2649 24.3478 10.5415 24.44 10.772C24.5322 11.0025 24.6474 11.1638 24.8088 11.3021C24.9701 11.4404 25.1545 11.5326 25.3619 11.6018C25.5924 11.6709 25.8229 11.694 26.0764 11.694C26.33 11.694 26.5605 11.6709 26.7679 11.6018C26.9753 11.5326 27.1597 11.4404 27.3211 11.3021C27.4824 11.1638 27.5976 10.9795 27.6898 10.772C27.782 10.5646 27.8281 10.311 27.8281 9.98836C27.8281 9.68873 27.782 9.41215 27.6898 9.20471C27.5976 8.97422 27.4824 8.81288 27.3211 8.67459C27.1597 8.5363 26.9753 8.44411 26.7679 8.37496C26.5605 8.30581 26.33 8.28276 26.0764 8.28276C25.8229 8.28276 25.5694 8.30581 25.3619 8.37496C25.1545 8.44411 24.9701 8.5363 24.8088 8.67459C24.6474 8.81288 24.5322 8.99727 24.44 9.20471ZM26.0764 10.8181C25.6846 10.8181 25.4772 10.5415 25.4772 9.96531C25.4772 9.64263 25.5233 9.41215 25.6155 9.2969C25.7307 9.18166 25.869 9.11251 26.0764 9.11251C26.2839 9.11251 26.4222 9.18166 26.5144 9.2969C26.6066 9.41215 26.6527 9.64263 26.6527 9.96531C26.6527 10.288 26.6066 10.5185 26.5144 10.6337C26.4222 10.749 26.2839 10.8181 26.0764 10.8181Z" fill="#6153CC"/>
<path fill-rule="evenodd" clip-rule="evenodd" d="M0 16.2594H15.7406V32.0001H6.97085C3.14813 32.0001 0 28.852 0 25.0292V16.2594ZM10.3726 27.1463C10.4919 27.194 10.5873 27.2179 10.7066 27.2179C11.0406 27.2179 11.3747 27.027 11.5178 26.7168C11.6848 26.2874 11.5178 25.8102 11.0884 25.6193L8.2014 24.3786V19.7738C8.2014 19.3205 7.81965 18.9387 7.36632 18.9387C6.913 18.9387 6.53125 19.3205 6.53125 19.7738V24.9274C6.53125 25.2614 6.67441 25.5716 6.98458 25.6909L10.3726 27.1463Z" fill="#6153CC"/>
</svg>
