<svg width="24" height="24" viewBox="0 0 24 24" fill="none" xmlns="http://www.w3.org/2000/svg">
<path fill-rule="evenodd" clip-rule="evenodd" d="M16.6831 16.4595C16.78 16.5765 16.8634 16.6997 16.9203 16.8324C17.1229 16.6264 17.3132 16.4083 17.4901 16.1793C16.7168 15.3493 15.9635 14.6803 14.5 14.2704C14.5 14.2704 15.3015 13.9836 15.7599 13.8469C15.8745 13.8127 15.9509 13.7443 15.9891 13.6418C16.0464 13.4709 16.0082 13.3171 15.9509 13.1633L15.9318 13.1462C15.6644 12.8727 15.4543 12.5651 15.3015 12.2233C15.0914 11.7276 15.015 11.232 15.1488 10.7193C15.2634 10.2578 15.5307 9.91604 16.0082 9.69384C16.4093 9.50589 16.8295 9.45459 17.2688 9.54004C17.9372 9.65969 18.3765 10.0186 18.5866 10.5997C18.7203 10.9244 18.7203 11.2491 18.663 11.5909C18.5675 12.1549 18.3192 12.6676 17.8799 13.0949C17.8226 13.1462 17.8035 13.1974 17.7844 13.2658C17.7271 13.5222 17.8417 13.7443 18.09 13.8298C18.2721 13.8918 18.4541 13.9574 18.6343 14.0297C18.8716 13.3128 19 12.5464 19 11.75C19 7.74595 15.754 4.5 11.75 4.5C7.74595 4.5 4.5 7.74595 4.5 11.75C4.5 12.6171 4.65223 13.4487 4.93141 14.2194C5.27716 14.0567 5.63538 13.9277 5.9936 13.8112C6.25275 13.7261 6.37235 13.5049 6.31255 13.2497C6.2926 13.1816 6.2727 13.1305 6.21285 13.0795C5.75435 12.654 5.4952 12.1435 5.3955 11.5819C5.3357 11.2416 5.3357 10.9183 5.47525 10.5949C5.69455 10.0163 6.15305 9.65898 6.8508 9.53988C7.30935 9.45478 7.74795 9.50583 8.1666 9.69303C8.66495 9.91423 8.94405 10.2546 9.0637 10.7141C9.20325 11.2246 9.1235 11.7181 8.9042 12.2116C8.7447 12.5519 8.5254 12.8583 8.2463 13.1305L8.2264 13.1475C8.1666 13.3007 8.1267 13.4539 8.1865 13.624C8.2264 13.7261 8.30615 13.7942 8.42575 13.8282C8.9042 13.9644 9.74085 14.25 9.74085 14.25C8.02843 14.7075 7.1855 15.519 6.26186 16.4875C6.48988 16.7515 6.73661 16.9987 7 17.2274V17.0478C7.0285 16.7804 7.19935 16.5398 7.37025 16.3526C7.6835 16.0317 8.05375 15.7642 8.45245 15.5504C9.02205 15.2295 9.62015 14.9888 10.2182 14.7748C10.5884 14.6411 10.7593 14.2935 10.6739 13.8924C10.6454 13.7854 10.6169 13.7052 10.5315 13.625C9.87645 12.9564 9.5062 12.1542 9.3638 11.2717C9.2784 10.7369 9.2784 10.2287 9.47775 9.72065C9.791 8.81145 10.4461 8.24985 11.4429 8.0627C12.0978 7.92895 12.7244 8.0092 13.3225 8.30335C14.0345 8.651 14.4332 9.1858 14.6041 9.90785C14.8035 10.7101 14.6895 11.4856 14.3763 12.2611C14.1484 12.7959 13.8352 13.2773 13.4364 13.7051L13.408 13.7319C13.3225 13.9726 13.2656 14.2133 13.351 14.4806C13.408 14.6411 13.5218 14.7481 13.6927 14.8015C14.3763 15.0155 15.0312 15.2829 15.6293 15.6306C16.028 15.8445 16.3983 16.1119 16.6831 16.4595ZM11.75 20.5C16.5825 20.5 20.5 16.5825 20.5 11.75C20.5 6.9175 16.5825 3 11.75 3C6.9175 3 3 6.9175 3 11.75C3 16.5825 6.9175 20.5 11.75 20.5Z" fill="#6153CC"/>
</svg>
